<svg width="64" height="64" viewBox="0 0 64 64" fill="none" xmlns="http://www.w3.org/2000/svg">
  <rect width="64" height="64" rx="12" fill="#060810"/>
  <line x1="32" y1="32" x2="13" y2="13" stroke="#4fc3f7" stroke-width="3" stroke-linecap="round"/>
  <line x1="32" y1="32" x2="51" y2="13" stroke="#4fc3f7" stroke-width="3" stroke-linecap="round"/>
  <line x1="32" y1="32" x2="13" y2="51" stroke="#4fc3f7" stroke-width="3" stroke-linecap="round"/>
  <line x1="32" y1="32" x2="51" y2="51" stroke="#4fc3f7" stroke-width="3" stroke-linecap="round"/>
  <circle cx="10" cy="10" r="7" stroke="#4fc3f7" stroke-width="2" fill="rgba(79,195,247,0.15)"/>
  <circle cx="54" cy="10" r="7" stroke="#4fc3f7" stroke-width="2" fill="rgba(79,195,247,0.15)"/>
  <circle cx="10" cy="54" r="7" stroke="#4fc3f7" stroke-width="2" fill="rgba(79,195,247,0.15)"/>
  <circle cx="54" cy="54" r="7" stroke="#4fc3f7" stroke-width="2" fill="rgba(79,195,247,0.15)"/>
  <line x1="7"  y1="10" x2="13" y2="10" stroke="#4fc3f7" stroke-width="1.5" stroke-linecap="round"/>
  <line x1="10" y1="7"  x2="10" y2="13" stroke="#4fc3f7" stroke-width="1.5" stroke-linecap="round"/>
  <line x1="51" y1="10" x2="57" y2="10" stroke="#4fc3f7" stroke-width="1.5" stroke-linecap="round"/>
  <line x1="54" y1="7"  x2="54" y2="13" stroke="#4fc3f7" stroke-width="1.5" stroke-linecap="round"/>
  <line x1="7"  y1="54" x2="13" y2="54" stroke="#4fc3f7" stroke-width="1.5" stroke-linecap="round"/>
  <line x1="10" y1="51" x2="10" y2="57" stroke="#4fc3f7" stroke-width="1.5" stroke-linecap="round"/>
  <line x1="51" y1="54" x2="57" y2="54" stroke="#4fc3f7" stroke-width="1.5" stroke-linecap="round"/>
  <line x1="54" y1="51" x2="54" y2="57" stroke="#4fc3f7" stroke-width="1.5" stroke-linecap="round"/>
  <rect x="24" y="24" width="16" height="16" rx="3" fill="#060810" stroke="#4fc3f7" stroke-width="1.5"/>
  <circle cx="32" cy="32" r="3.5" fill="#4fc3f7" opacity="0.9"/>
  <circle cx="32" cy="32" r="1.5" fill="#060810"/>
  <circle cx="32" cy="32" r="0.8" fill="#4fc3f7"/>
</svg>
